<svg xmlns="http://www.w3.org/2000/svg" viewBox="0 0 1440 800" preserveAspectRatio="none">
  <defs>
    <pattern id="smallGrid" width="60" height="60" patternUnits="userSpaceOnUse">
      <rect width="60" height="60" fill="none" stroke="#aed140" stroke-width="0.5" stroke-opacity="0.3"/>
    </pattern>
    <pattern id="grid" width="120" height="120" patternUnits="userSpaceOnUse">
      <rect width="120" height="120" fill="url(#smallGrid)"/>
      <rect width="120" height="120" fill="none" stroke="#61665e" stroke-width="1" stroke-opacity="0.15"/>
    </pattern>
    <radialGradient id="highlight1" cx="0.3" cy="0.3" r="0.7">
      <stop offset="0%" stop-color="#ffffff" stop-opacity="0.3"/>
      <stop offset="100%" stop-color="#8fc63e" stop-opacity="0"/>
    </radialGradient>
    <radialGradient id="highlight2" cx="0.7" cy="0.7" r="0.6">
      <stop offset="0%" stop-color="#aed140" stop-opacity="0.3"/>
      <stop offset="100%" stop-color="#8fc63e" stop-opacity="0"/>
    </radialGradient>
    <filter id="glow" x="-50%" y="-50%" width="200%" height="200%">
      <feGaussianBlur stdDeviation="20" result="blur"/>
      <feComposite in="SourceGraphic" in2="blur" operator="over"/>
    </filter>
  </defs>
  
  <!-- Base background -->
  <rect width="100%" height="100%" fill="#8fc63e"/>
  
  <!-- Grid overlay -->
  <rect width="100%" height="100%" fill="url(#grid)"/>
  
  <!-- Highlighted squares -->
  <rect x="240" y="240" width="120" height="120" fill="#aed140" fill-opacity="0.2"/>
  <rect x="480" y="120" width="120" height="120" fill="#aed140" fill-opacity="0.2"/>
  <rect x="720" y="360" width="120" height="120" fill="#aed140" fill-opacity="0.2"/>
  <rect x="960" y="240" width="120" height="120" fill="#aed140" fill-opacity="0.2"/>
  <rect x="1200" y="480" width="120" height="120" fill="#aed140" fill-opacity="0.2"/>
  <rect x="360" y="600" width="120" height="120" fill="#aed140" fill-opacity="0.2"/>
  
  <!-- Glowing highlights -->
  <g filter="url(#glow)">
    <ellipse cx="400" cy="300" rx="300" ry="200" fill="url(#highlight1)" opacity="0.6"/>
    <ellipse cx="1000" cy="600" rx="250" ry="180" fill="url(#highlight2)" opacity="0.5"/>
    <ellipse cx="1100" cy="200" rx="200" ry="150" fill="url(#highlight1)" opacity="0.4"/>
  </g>
</svg>